<svg width="15" height="9" viewBox="0 0 15 9" fill="none" xmlns="http://www.w3.org/2000/svg">
<path d="M7.5 0C7.67937 0 7.85292 0.0343523 8.02063 0.103055C8.18924 0.171757 8.3296 0.26336 8.4417 0.377864L14.63 6.69847C14.8767 6.95038 15 7.27099 15 7.66031C15 8.04962 14.8767 8.37023 14.63 8.62214C14.3834 8.87405 14.0695 9 13.6883 9C13.3072 9 12.9933 8.87405 12.7466 8.62214L7.5 3.26336L2.25336 8.62214C2.00673 8.87405 1.69283 9 1.31166 9C0.930494 9 0.616594 8.87405 0.369958 8.62214C0.123321 8.37023 0 8.04962 0 7.66031C0 7.27099 0.123321 6.95038 0.369958 6.69847L6.5583 0.377864C6.69283 0.240459 6.83857 0.14336 6.99552 0.086566C7.15247 0.0288563 7.32063 0 7.5 0Z" fill="#0066ff"/>
</svg>
