<svg width="211" height="152" viewBox="0 0 211 152" fill="none" xmlns="http://www.w3.org/2000/svg">
<path fill-rule="evenodd" clip-rule="evenodd" d="M101.337 42.7333C58.4011 59.2259 43.3359 104.206 54.6348 134.192C65.9338 163.429 96.0644 188.917 132.221 176.173C168.378 163.429 193.236 115.45 180.43 78.7171C175.91 66.7225 169.884 57.7266 161.598 50.9796C148.04 39.7347 137.494 42.7333 129.961 41.9837C123.182 41.9837 114.143 37.4857 101.337 42.7333ZM158.585 27.7401C156.326 25.4911 154.066 14.2462 145.027 8.99861C135.234 3.75099 114.896 -7.49392 71.9599 7.49929C34.2967 20.9932 -14.6655 62.9742 4.16608 134.192C21.4912 199.412 95.3111 224.151 141.26 208.408C187.209 192.665 224.873 131.193 206.041 77.9674C193.236 42.7333 160.845 29.9891 158.585 27.7401Z" fill="#376F5D"/>
</svg>
