<svg width="40" height="40" viewBox="0 0 40 40" fill="none" xmlns="http://www.w3.org/2000/svg">
<g clip-path="url(#clip0_840_1772)">
<path fill-rule="evenodd" clip-rule="evenodd" d="M0 20C0 8.9579 8.9579 0 20 0C31.0421 0 40 8.9579 40 20C40 31.0421 31.0421 40 20 40C8.9579 40 0 31.0421 0 20ZM29.7254 9.6L21.9809 18.4157L30.4 30.4173H24.2058L18.5343 22.3338L11.4346 30.4173H9.6L17.721 21.1738L9.6 9.6H15.7942L21.1634 17.253L27.8908 9.6H29.7254ZM14.9151 10.9548H12.0967L25.0703 29.1291H27.8894L14.9151 10.9548Z" fill="#155BCC"/>
</g>
<defs>
<clipPath id="clip0_840_1772">
<rect width="40" height="40" fill="white"/>
</clipPath>
</defs>
</svg>
