<svg width="40" height="40" viewBox="0 0 40 40" fill="none" xmlns="http://www.w3.org/2000/svg">
<g clip-path="url(#clip0_840_1776)">
<path fill-rule="evenodd" clip-rule="evenodd" d="M0 20C0 8.9579 8.9579 0 20 0C31.0421 0 40 8.9579 40 20C40 31.0421 31.0421 40 20 40C8.9579 40 0 31.0421 0 20ZM11.7353 27.1429H15.5856V15.6974H11.7353V27.1429ZM11.4286 12.0583C11.4286 13.1948 12.4272 14.1362 13.6584 14.1362C14.8892 14.1362 15.8882 13.1948 15.8882 12.0583C15.8882 11.5124 15.6533 10.9889 15.2351 10.6029C14.8169 10.2169 14.2498 10 13.6584 10C13.067 10 12.4998 10.2169 12.0817 10.6029C11.6635 10.9889 11.4286 11.5124 11.4286 12.0583ZM26.1539 27.1429H29.9959H30V20.8557C30 17.7791 29.2837 15.4105 25.387 15.4105C23.5137 15.4105 22.258 16.3595 21.744 17.2587H21.6901V15.6974H17.9974V27.1429H21.8435V21.4756C21.8435 19.9833 22.1503 18.5406 24.1521 18.5406C26.1249 18.5406 26.1539 20.2435 26.1539 21.5713V27.1429Z" fill="#155BCC"/>
</g>
<defs>
<clipPath id="clip0_840_1776">
<rect width="40" height="40" fill="white"/>
</clipPath>
</defs>
</svg>
